<?xml version="1.0" encoding="utf-8"?>
<!-- Generator: Adobe Illustrator 25.2.0, SVG Export Plug-In . SVG Version: 6.00 Build 0)  -->
<svg version="1.1" id="Layer_1" xmlns="http://www.w3.org/2000/svg" xmlns:xlink="http://www.w3.org/1999/xlink" x="0px" y="0px"
	 viewBox="0 0 1500 1500" style="enable-background:new 0 0 1500 1500;" xml:space="preserve">
<style type="text/css">
	.st0{fill:#FFFFFF;}
	.st1{fill:none;stroke:#000000;stroke-width:20;stroke-miterlimit:10;}
	.st2{fill:#507B00;stroke:#000000;stroke-width:20;stroke-miterlimit:10;}
	.st3{stroke:#000000;stroke-miterlimit:10;}
	.st4{font-family:'Pacifico-Regular';}
	.st5{font-size:378.2561px;}
	.st6{fill:none;}
	.st7{opacity:0.5;fill:none;stroke:#507B00;stroke-width:20;stroke-miterlimit:10;}
</style>
<g>
	<rect x="0.5" y="0.5" class="st0" width="1499" height="1499"/>
	<path d="M1499,1v1498H1V1H1499 M1500,0H0v1500h1500V0L1500,0z"/>
</g>
<path class="st1" d="M1218.8,946.2c-74.6,189.1-253.7,322.3-462.8,322.3c-202.2,0-376.3-124.5-455-303.7"/>
<path class="st1" d="M276.9,577C336.2,380.3,524,234.6,749,230.6c235.8-4.3,436.4,148.4,492.9,357.6"/>
<path class="st2" d="M681.8,748.8c3.7-33,0-79.7,73.3-95.3c50.3-10.7,81.6,14.7,81.6,14.7s0,44-41.2,51.3
	C745.2,728.4,681.8,748.8,681.8,748.8z"/>
<path class="st2" d="M868.8,594.9c-24.5,13.3-32.1,73.3-32.1,73.3s62.3,7.3,88-14.7s65.1-41.2,65.1-41.2S912.7,571.1,868.8,594.9z"
	/>
<path class="st1" d="M836.7,668.2c0,0,28.4,45.3,34.8,80.6c6.4,35.4,1.8,136.5,1.8,136.5"/>
<text transform="matrix(1 0 0 1 912.9512 886.3936)" class="st3 st4 st5">able</text>
<text transform="matrix(1 0 0 1 68.0259 887.3164)" class="st3 st4 st5">Our</text>
<rect x="885.6" y="986.5" class="st6" width="2.7" height="0"/>
<rect x="28.7" y="441.5" class="st6" width="2.3" height="0"/>
<path class="st7" d="M1166.5,923.3c-66.1,167.4-224.7,285.4-409.8,285.4c-179,0-333.2-110.3-403-268.9"/>
<path class="st7" d="M332.5,596.3c52.5-174.2,218.8-303.2,418-306.8c208.8-3.8,386.4,131.4,436.5,316.7"/>
</svg>
